<svg id="visual" viewBox="0 0 1920 1080" width="1920" height="1080" xmlns="http://www.w3.org/2000/svg" xmlns:xlink="http://www.w3.org/1999/xlink" version="1.1"><path d="M0 293L35.5 276.7C71 260.3 142 227.7 213.2 231.2C284.3 234.7 355.7 274.3 426.8 251C498 227.7 569 141.3 640 127C711 112.7 782 170.3 853.2 201C924.3 231.7 995.7 235.3 1066.8 211.8C1138 188.3 1209 137.7 1280 117.8C1351 98 1422 109 1493.2 116.3C1564.3 123.7 1635.7 127.3 1706.8 114.7C1778 102 1849 73 1884.5 58.5L1920 44L1920 0L1884.5 0C1849 0 1778 0 1706.8 0C1635.7 0 1564.3 0 1493.2 0C1422 0 1351 0 1280 0C1209 0 1138 0 1066.8 0C995.7 0 924.3 0 853.2 0C782 0 711 0 640 0C569 0 498 0 426.8 0C355.7 0 284.3 0 213.2 0C142 0 71 0 35.5 0L0 0Z" fill="#193760"></path><path d="M0 617L35.5 561.2C71 505.3 142 393.7 213.2 386.3C284.3 379 355.7 476 426.8 531.8C498 587.7 569 602.3 640 579C711 555.7 782 494.3 853.2 447.5C924.3 400.7 995.7 368.3 1066.8 366.5C1138 364.7 1209 393.3 1280 384.3C1351 375.3 1422 328.7 1493.2 308.8C1564.3 289 1635.7 296 1706.8 283.3C1778 270.7 1849 238.3 1884.5 222.2L1920 206L1920 42L1884.5 56.5C1849 71 1778 100 1706.8 112.7C1635.7 125.3 1564.3 121.7 1493.2 114.3C1422 107 1351 96 1280 115.8C1209 135.7 1138 186.3 1066.8 209.8C995.7 233.3 924.3 229.7 853.2 199C782 168.3 711 110.7 640 125C569 139.3 498 225.7 426.8 249C355.7 272.3 284.3 232.7 213.2 229.2C142 225.7 71 258.3 35.5 274.7L0 291Z" fill="#1c3d6b"></path><path d="M0 692L35.5 648.8C71 605.7 142 519.3 213.2 526.5C284.3 533.7 355.7 634.3 426.8 683C498 731.7 569 728.3 640 685.2C711 642 782 559 853.2 519.3C924.3 479.7 995.7 483.3 1066.8 497.8C1138 512.3 1209 537.7 1280 510.7C1351 483.7 1422 404.3 1493.2 375.5C1564.3 346.7 1635.7 368.3 1706.8 375.5C1778 382.7 1849 375.3 1884.5 371.7L1920 368L1920 204L1884.5 220.2C1849 236.3 1778 268.7 1706.8 281.3C1635.7 294 1564.3 287 1493.2 306.8C1422 326.7 1351 373.3 1280 382.3C1209 391.3 1138 362.7 1066.8 364.5C995.7 366.3 924.3 398.7 853.2 445.5C782 492.3 711 553.7 640 577C569 600.3 498 585.7 426.8 529.8C355.7 474 284.3 377 213.2 384.3C142 391.7 71 503.3 35.5 559.2L0 615Z" fill="#204477"></path><path d="M0 843L35.5 785.5C71 728 142 613 213.2 598.7C284.3 584.3 355.7 670.7 426.8 733.7C498 796.7 569 836.3 640 811.2C711 786 782 696 853.2 651C924.3 606 995.7 606 1066.8 609.5C1138 613 1209 620 1280 587.5C1351 555 1422 483 1493.2 447C1564.3 411 1635.7 411 1706.8 412.8C1778 414.7 1849 418.3 1884.5 420.2L1920 422L1920 366L1884.5 369.7C1849 373.3 1778 380.7 1706.8 373.5C1635.7 366.3 1564.3 344.7 1493.2 373.5C1422 402.3 1351 481.7 1280 508.7C1209 535.7 1138 510.3 1066.8 495.8C995.7 481.3 924.3 477.7 853.2 517.3C782 557 711 640 640 683.2C569 726.3 498 729.7 426.8 681C355.7 632.3 284.3 531.7 213.2 524.5C142 517.3 71 603.7 35.5 646.8L0 690Z" fill="#244a83"></path><path d="M0 930L35.5 879.5C71 829 142 728 213.2 710C284.3 692 355.7 757 426.8 809.3C498 861.7 569 901.3 640 903.2C711 905 782 869 853.2 836.5C924.3 804 995.7 775 1066.8 749.7C1138 724.3 1209 702.7 1280 691.8C1351 681 1422 681 1493.2 645C1564.3 609 1635.7 537 1706.8 513.7C1778 490.3 1849 515.7 1884.5 528.3L1920 541L1920 420L1884.5 418.2C1849 416.3 1778 412.7 1706.8 410.8C1635.7 409 1564.3 409 1493.2 445C1422 481 1351 553 1280 585.5C1209 618 1138 611 1066.8 607.5C995.7 604 924.3 604 853.2 649C782 694 711 784 640 809.2C569 834.3 498 794.7 426.8 731.7C355.7 668.7 284.3 582.3 213.2 596.7C142 611 71 726 35.5 783.5L0 841Z" fill="#34568e"></path><path d="M0 995L35.5 989.5C71 984 142 973 213.2 985.5C284.3 998 355.7 1034 426.8 1048.5C498 1063 569 1056 640 1050.7C711 1045.3 782 1041.7 853.2 1041.7C924.3 1041.7 995.7 1045.3 1066.8 1048.8C1138 1052.3 1209 1055.7 1280 1059.2C1351 1062.7 1422 1066.3 1493.2 1061C1564.3 1055.7 1635.7 1041.3 1706.8 1021.5C1778 1001.7 1849 976.3 1884.5 963.7L1920 951L1920 539L1884.5 526.3C1849 513.7 1778 488.3 1706.8 511.7C1635.7 535 1564.3 607 1493.2 643C1422 679 1351 679 1280 689.8C1209 700.7 1138 722.3 1066.8 747.7C995.7 773 924.3 802 853.2 834.5C782 867 711 903 640 901.2C569 899.3 498 859.7 426.8 807.3C355.7 755 284.3 690 213.2 708C142 726 71 827 35.5 877.5L0 928Z" fill="#426299"></path><path d="M0 1081L35.5 1081C71 1081 142 1081 213.2 1081C284.3 1081 355.7 1081 426.8 1081C498 1081 569 1081 640 1081C711 1081 782 1081 853.2 1081C924.3 1081 995.7 1081 1066.8 1081C1138 1081 1209 1081 1280 1081C1351 1081 1422 1081 1493.2 1081C1564.3 1081 1635.7 1081 1706.8 1081C1778 1081 1849 1081 1884.5 1081L1920 1081L1920 949L1884.5 961.7C1849 974.3 1778 999.7 1706.8 1019.5C1635.7 1039.3 1564.3 1053.7 1493.2 1059C1422 1064.3 1351 1060.7 1280 1057.2C1209 1053.7 1138 1050.3 1066.8 1046.8C995.7 1043.3 924.3 1039.7 853.2 1039.7C782 1039.7 711 1043.3 640 1048.7C569 1054 498 1061 426.8 1046.5C355.7 1032 284.3 996 213.2 983.5C142 971 71 982 35.5 987.5L0 993Z" fill="#506fa4"></path></svg>